# xmcd CD database file
#
# Track frame offsets:
#	150
#	11405
#	26742
#	40140
#	49092
#	61507
#	75347
#	86415
#	107585
#	117035
#	126907
#	146312
#	157790
#	172452
#	184750
#	196527
#	209502
#	223285
#	238622
#	256832
#	269187
#	289900
#	302935
#	315542
#
# Disc length: 4437 seconds
#
# Revision: 3
# Processed by: cddbd v1.5.2PL0 Copyright (c) Steve Scherf et al.
# Submitted via: CDex 1.51
#
DISCID=4f115318
DTITLE=Various Artists ['Crumb' Soundtrack] - Crumb - Original Soundtrack
DYEAR=1995
DGENRE=Soundtrack
TTITLE0=Boeddinghaus, David - Ragtime Nightingale
TTITLE1=Ventresso, Craig - Sensation Rag
TTITLE2=Boeddinghaus, David - Harlem Strut
TTITLE3=Ventresso, Craig - Abraham Jefferson Washington Lee
TTITLE4=Ventresso, Craig - Belle of the Philippines
TTITLE5=Wiley, Geechie - Last Kind Word Blues [1930]
TTITLE6=Ventresso, Craig - Radiator Cap Blues
TTITLE7=Ventresso, Craig - Gabby Glide Melody
TTITLE8=Boeddinghaus, David - Frog-I-More Rag
TTITLE9=Ventresso, Craig - Cocaine
TTITLE10=Ventresso, Craig - Won't You Fondle Me Medley
TTITLE11=Boeddinghaus, David - Pass the Jug
TTITLE12=Wiley, Geechie - Skinny Leg Blues [1930]
TTITLE13=Ventresso, Craig - Buffalo Rag
TTITLE14=Boeddinghaus, David - 35th Street Blues
TTITLE15=Boeddinghaus, David - Mabel's Dream
TTITLE16=Ventresso, Craig - Wall Street Rag
TTITLE17=Ventresso, Craig - Hateful Blues
TTITLE18=Boeddinghaus, David - A Real Slow Drag
TTITLE19=Boeddinghaus, David and Craig Ventresso - Comic Montage Stomp
TTITLE20=Ventresso, Craig - Someday Sweetheart
TTITLE21=Ventresso, Craig - Rag Pickings
TTITLE22=Ventresso, Craig - Black Diamond Rag
TTITLE23=Ventresso, Craig - Ragtime Nightingale
EXTD=YEAR: 1995
EXTT0=
EXTT1=
EXTT2=
EXTT3=
EXTT4=
EXTT5=
EXTT6=
EXTT7=
EXTT8=
EXTT9=
EXTT10=
EXTT11=
EXTT12=
EXTT13=
EXTT14=
EXTT15=
EXTT16=
EXTT17=
EXTT18=
EXTT19=
EXTT20=
EXTT21=
EXTT22=
EXTT23=
PLAYORDER=
